# xmcd
#
# Track frame offsets:
#	150
#	17996
#	33866
#	48315
#	62255
#	80459
#	99388
#	118072
#	130561
#	150643
#	169149
#	184801
#	202549
#	219310
#	232643
#	252666
#	270123
#
# Disc length: 3892 seconds
#
# Revision: 0
# Processed by: cddbd v1.5.2PL0 Copyright (c) Steve Scherf et al.
# Submitted via: EasyCDDAExtractor 2010.6.0.0
#
DISCID=ca0f3211
DTITLE=U.N.G - When I'm Without You
DYEAR=1900
DGENRE=Duet
TTITLE0=When I'm Without You
TTITLE1=Sha La La
TTITLE2=Have You Ever Seen The Rain
TTITLE3=Wasted Days And Wasted Nights
TTITLE4=Because It's Love
TTITLE5=Liewe Lulu
TTITLE6=To Love Somebody
TTITLE7=Oh Lonesome Me
TTITLE8=Red River Rosie
TTITLE9=Midnight Special
TTITLE10=All You Ever Do Is Bring Me Down
TTITLE11=Forty Days
TTITLE12=Lief Vir Alles Hier
TTITLE13=Bad Moon Rising
TTITLE14=You Needed Me
TTITLE15=Save The Last Dance For Me
TTITLE16=Ewige Liefde
EXTD=
EXTT0=
EXTT1=
EXTT2=
EXTT3=
EXTT4=
EXTT5=
EXTT6=
EXTT7=
EXTT8=
EXTT9=
EXTT10=
EXTT11=
EXTT12=
EXTT13=
EXTT14=
EXTT15=
EXTT16=
PLAYORDER=
